<?xml version="1.0" ?><!-- Generator: Adobe Illustrator 19.0.0, SVG Export Plug-In . SVG Version: 6.00 Build 0)  --><!DOCTYPE svg  PUBLIC '-//W3C//DTD SVG 1.1//EN'  'http://www.w3.org/Graphics/SVG/1.1/DTD/svg11.dtd' [
	<!ENTITY stroke_color "#666666">
	<!ENTITY fill_color "#ffffff">
]><svg id="Layer_1" style="enable-background:new 0 0 511.998 511.998;" version="1.1" viewBox="0 0 511.998 511.998" x="0px" xml:space="preserve" xmlns="http://www.w3.org/2000/svg" xmlns:xlink="http://www.w3.org/1999/xlink" y="0px">
<path d="M212.233,472.717c0.023,17.695,7.644,31.979,27.6,31.979h32.329c19.956,0,27.577-14.284,27.6-31.979  H212.233z" style="fill:&fill_color;;"/>
<path d="M169.939,179.608c0.723-0.39,1.479-0.75,2.277-1.074l39.642-18.705l-47.122-27.685  c-29.795-15.082-47.62-46.58-45.21-79.888l2.94-40.633c0.323-4.457-5.784-6.025-7.649-1.964l-27.29,59.417  c-15.371,33.467-6.802,73.064,21.031,97.182l35.187,25.709L169.939,179.608z" style="fill:#DECCBC;"/>
<g style="">
	<path d="M116.606,7.754c0.135-0.069,0.271-0.133,0.412-0.185c-0.156,0.058-0.308,0.13-0.457,0.209   C116.576,7.77,116.591,7.762,116.606,7.754z" style="fill:#CEBCAF;"/>
	<path d="M117.771,7.375c-0.192,0.03-0.38,0.074-0.566,0.133c0.021-0.007,0.042-0.015,0.064-0.021   c0.15-0.044,0.301-0.079,0.454-0.105C117.739,7.379,117.755,7.378,117.771,7.375z" style="fill:#CEBCAF;"/>
	<path d="M119.221,7.405c0.045,0.009,0.09,0.013,0.134,0.024c0.23,0.053,0.457,0.123,0.675,0.213   c-27.063,62.004-17.067,112.878,10.496,136.761l27.553,19.619c0,0,14.655,10.64,17.684,12.839l36.095-17.031l-47.122-27.685   c-29.795-15.082-47.62-46.58-45.21-79.888l2.94-40.633c0.186-2.569-1.764-4.169-3.806-4.294   C118.848,7.341,119.036,7.368,119.221,7.405z" style="fill:#CEBCAF;"/>
	<path d="M115.411,8.729c0.113-0.138,0.227-0.274,0.353-0.391c0.025-0.023,0.052-0.042,0.078-0.063   c-0.21,0.186-0.409,0.393-0.585,0.637C115.305,8.847,115.36,8.791,115.411,8.729z" style="fill:#CEBCAF;"/>
	<path d="M114.816,9.659c0.124-0.27,0.269-0.511,0.427-0.732C115.085,9.148,114.94,9.389,114.816,9.659z" style="fill:#CEBCAF;"/>
	<path d="M118.459,7.326c0.019,0,0.038,0.001,0.056,0.001c-0.186-0.005-0.372,0-0.557,0.021   C118.124,7.33,118.291,7.324,118.459,7.326z" style="fill:#CEBCAF;"/>
	<path d="M115.985,8.158c0.122-0.097,0.245-0.192,0.375-0.272C116.23,7.966,116.107,8.061,115.985,8.158z" style="fill:#CEBCAF;"/>
</g>
<path d="M342.055,179.608c-0.723-0.39-1.479-0.75-2.277-1.074l-39.642-18.705l47.122-27.685  c29.795-15.082,47.62-46.58,45.21-79.888l-2.94-40.633c-0.323-4.457,5.784-6.025,7.649-1.964l27.29,59.417  c15.371,33.467,6.802,73.064-21.031,97.182l-35.187,25.709L342.055,179.608z" style="fill:#DECCBC;"/>
<path d="M342.055,179.608c-0.723-0.39-1.479-0.75-2.277-1.074l-3.547-1.674  c3.029-2.199,17.684-12.839,17.684-12.839l27.553-19.619c27.562-23.883,37.559-74.757,10.496-136.761  c0.218-0.09,0.445-0.16,0.675-0.213c0.044-0.01,0.089-0.015,0.134-0.024c0.186-0.037,0.373-0.064,0.563-0.075  c0.067-0.004,0.133-0.002,0.2-0.003c0.167-0.002,0.335,0.004,0.501,0.022c0.079,0.009,0.157,0.021,0.235,0.034  c0.153,0.026,0.304,0.061,0.454,0.105c0.084,0.025,0.168,0.051,0.25,0.082c0.14,0.052,0.277,0.116,0.412,0.185  c0.083,0.043,0.166,0.084,0.246,0.133c0.13,0.08,0.254,0.175,0.376,0.273c0.074,0.059,0.15,0.113,0.221,0.179  c0.125,0.117,0.239,0.253,0.353,0.391c0.055,0.067,0.116,0.126,0.168,0.198c0.158,0.221,0.303,0.462,0.427,0.732l27.29,59.417  c3.168,6.898,5.319,14.057,6.495,21.287c0.752,4.625,1.104,9.279,1.067,13.913c-0.043,5.463-0.626,10.897-1.733,16.222  c-3.605,17.353-12.761,33.543-26.86,45.76l-35.187,25.709L342.055,179.608z" style="fill:#CEBCAF;"/>
<path d="M123.07,204.088c-6.019-0.041-16.73-0.07-17.453-0.08l0,0c-30.728-0.441-58.766,15.88-71.2,41.446  l-12.11,24.901c-2.486,5.111,0.054,11.088,5.673,13.349l27.373,11.016c20.15,8.11,60.581,7.779,80.626-0.1L123.07,204.088z" style="fill:#72563A;"/>
<path d="M126.694,229.505c-4.888-0.158-20.116-0.252-21.381-0.271c-0.306-0.005-0.608-0.007-0.913-0.007  c-22.674,0-43.253,12.191-52.428,31.057l-8.844,18.187l19.991,8.044c7.356,2.96,15.155,4.461,23.182,4.461  c10.572,0,37.952-2.617,48.089-7.5L126.694,229.505z" style="fill:#AB825B;"/>
<path d="M388.924,204.088c6.019-0.041,16.73-0.07,17.453-0.08l0,0c30.728-0.441,58.766,15.88,71.2,41.446  l12.11,24.901c2.486,5.111-0.054,11.088-5.673,13.349l-27.373,11.016c-20.15,8.11-60.581,7.779-80.626-0.1L388.924,204.088z" style="fill:#72563A;"/>
<path d="M385.3,229.505c4.888-0.158,20.116-0.252,21.381-0.271c0.306-0.005,0.608-0.007,0.913-0.007  c22.674,0,43.253,12.191,52.428,31.057l8.844,18.187l-19.991,8.044c-7.356,2.96-15.155,4.461-23.182,4.461  c-10.572,0-37.952-2.617-48.089-7.5L385.3,229.505z" style="fill:#AB825B;"/>
<path d="M352.264,162.649l-62.509-13.102c-25.293-5.302-51.504-5.163-76.702,0.404L157.38,162.25  c-27.337,6.039-44.157,30.931-40.393,58.206l13.778,99.838c1.925,14.261,9.665,27.54,21.528,37.3l0,0  c10.2,8.392,16.994,19.067,19.399,30.265l8.766,40.818c2.693,12.542,13.78,21.5,26.608,21.5h96.14  c12.828,0,23.914-8.958,26.608-21.5l8.767-40.819c2.405-11.198,9.199-21.872,19.4-30.265l0,0c11.863-9.761,19.604-23.04,21.529-37.3  l13.714-99.361C397.015,193.458,379.899,168.442,352.264,162.649z" style="fill:#6B4D32;"/>
<path d="M352.264,162.649l-62.509-13.102c-17.185-3.602-34.792-4.686-52.218-3.269  c7.61,0.616,15.19,1.697,22.688,3.269l62.509,13.102c27.635,5.792,44.751,30.809,40.959,58.284l-1.912,13.855l-11.802,85.506  c-1.925,14.261-9.665,27.54-21.529,37.3c-5.954,4.898-10.737,10.578-14.174,16.682c-0.894,9.455-3.193,18.758-6.875,27.568  l-2.786,6.669l-3.358,15.633l-1.548,26.032h3.496c4.009,0,7.847-0.875,11.313-2.461c0.693-0.317,1.371-0.662,2.033-1.035  c2.647-1.491,5.028-3.415,7.042-5.69c0.503-0.569,0.983-1.159,1.439-1.77c2.278-3.055,3.939-6.624,4.781-10.544l8.767-40.819  c0.451-2.1,1.056-4.181,1.809-6.232c0.425-1.157,0.907-2.301,1.424-3.437c1.012-2.221,2.189-4.399,3.543-6.515  c0.818-1.279,1.698-2.537,2.636-3.769c0.939-1.232,1.936-2.439,2.99-3.617c2.109-2.356,4.446-4.597,6.996-6.695  c9.639-7.931,16.556-18.184,19.844-29.399c0.759-2.588,1.324-5.227,1.685-7.901l12.821-92.888l0,0l0.893-6.473  C397.015,193.458,379.899,168.442,352.264,162.649z" style="fill:#5E432C;"/>
<g style="">
	<path d="M208.426,415.288l-5.617-13.444c-6.685-15.998-8.842-33.619-6.223-50.828l5.503-36.151   c3.678-24.164-5.74-48.47-24.557-63.372l0,0c-15.777-12.495-34.599-20.56-54.528-23.366l-5.056-0.712l12.818,92.878   c1.925,14.261,9.665,27.54,21.528,37.3l0,0c10.2,8.392,16.994,19.067,19.399,30.265l8.766,40.818   c2.693,12.542,13.78,21.5,26.608,21.5h3.434L208.426,415.288z" style="fill:#8A6747;"/>
	<path d="M301.783,415.288l-2.074,34.889h3.496c12.828,0,23.914-8.958,26.608-21.5l8.767-40.819   c2.405-11.198,9.199-21.872,19.4-30.265c11.863-9.761,19.604-23.04,21.529-37.3l12.821-92.888l-5.124,0.721   c-19.929,2.806-38.751,10.871-54.528,23.366l0,0c-18.817,14.902-28.236,39.208-24.557,63.372l5.503,36.151   c2.62,17.208,0.462,34.83-6.223,50.828L301.783,415.288z" style="fill:#8A6747;"/>
</g>
<path d="M387.205,228.127c-8.743,1.231-17.272,3.475-25.425,6.661l-11.802,85.506  c-1.925,14.261-9.665,27.54-21.529,37.3c-5.954,4.899-10.737,10.578-14.174,16.682c-0.894,9.455-3.193,18.758-6.875,27.568  l-2.786,6.669l-3.358,15.633l-1.548,26.032h3.496c4.009,0,7.847-0.875,11.313-2.461c0.693-0.317,1.371-0.663,2.033-1.035  c2.646-1.491,5.028-3.415,7.042-5.69c0.503-0.569,0.984-1.159,1.439-1.77c2.278-3.055,3.939-6.625,4.781-10.544l8.767-40.819  c0.451-2.1,1.056-4.181,1.809-6.232c0.425-1.157,0.907-2.301,1.424-3.437c1.012-2.221,2.189-4.399,3.543-6.515  c0.819-1.279,1.698-2.537,2.636-3.769c0.938-1.232,1.936-2.439,2.99-3.617c2.109-2.356,4.446-4.597,6.996-6.695  c9.639-7.931,16.556-18.184,19.844-29.399c0.759-2.588,1.324-5.227,1.685-7.901l12.821-92.888L387.205,228.127z" style="fill:#7C593C;"/>
<path d="M289.844,149.547c-25.293-5.302-51.504-5.163-76.702,0.404l-13.726,3.032  c3.066,20.016,29.932,35.781,40.718,41.359c2.772,1.433,5.839,2.181,8.96,2.181h0.002h12.197l0,0c3.115,0,6.179-0.743,8.946-2.174  c10.602-5.483,36.799-20.842,40.556-40.411L289.844,149.547z" style="fill:#8A6747;"/>
<path d="M260.225,149.547l48.765,10.221c0.803-1.891,1.418-3.829,1.801-5.812l-21.035-4.409  c-5.268-1.104-10.577-1.969-15.907-2.601c-0.287-0.034-0.575-0.066-0.862-0.098c-1.81-0.206-3.623-0.384-5.437-0.536  c-0.203-0.017-0.406-0.037-0.609-0.053c-0.855-0.068-1.71-0.127-2.566-0.183c-0.512-0.034-1.024-0.064-1.536-0.093  c-1.069-0.061-2.138-0.114-3.207-0.156c-0.863-0.034-1.725-0.067-2.588-0.089c-0.707-0.018-1.414-0.027-2.12-0.037  c-0.719-0.01-1.438-0.016-2.157-0.017c-0.641-0.001-1.282-0.004-1.923,0.001c-1.237,0.011-2.474,0.033-3.711,0.069  c-0.512,0.015-1.023,0.037-1.534,0.056c-0.97,0.036-1.939,0.079-2.908,0.131c-0.451,0.024-0.902,0.046-1.353,0.073  c-1.255,0.076-2.508,0.166-3.761,0.269C245.171,146.898,252.739,147.978,260.225,149.547z" style="fill:#7C593C;"/>
<path d="M333.589,445.657c-5.632-24.254-27.666-41.151-52.564-41.151h-7.749h-36.339h-7.75  c-24.899,0-46.932,16.897-52.564,41.15c-1.372,5.907-1.501,11.18,0.595,14.739c8.164,13.865,31.655,19.165,74.377,19.165  c1.225,0,2.391-0.064,3.511-0.176c1.121,0.112,2.286,0.176,3.511,0.176c42.722,0,66.213-5.3,74.378-19.165  C335.089,456.837,334.96,451.564,333.589,445.657z" style="fill:#513622;"/>
<path d="M333.589,445.657c-5.632-24.253-27.666-41.151-52.564-41.151h-7.749h-21.78  c24.899,0,46.933,16.898,52.564,41.151c1.372,5.907,1.5,11.179-0.595,14.738c-7.417,12.596-27.485,18.121-63.124,19.028  c3.593,0.091,7.341,0.137,11.253,0.137c1.225,0,2.391-0.064,3.511-0.176c1.121,0.112,2.286,0.176,3.511,0.176  c42.722,0,66.213-5.3,74.378-19.165C335.089,456.836,334.96,451.564,333.589,445.657z" style="fill:#472E1C;"/>
<g style="">
	<path d="M496.257,267.16l-12.11-24.901c-13.462-27.679-43.51-45.564-76.553-45.564   c-0.44,0-0.878,0.003-1.311,0.01c-0.278,0.003-2.026,0.01-4.407,0.019l-3.202,0.013c-1.4-4.81-3.403-9.377-5.928-13.62   l15.001-10.962c0.164-0.119,0.322-0.245,0.474-0.378c14.851-12.868,25.232-30.552,29.229-49.794   c0.821-3.95-1.716-7.818-5.666-8.637c-3.948-0.821-7.817,1.716-8.637,5.666c-3.378,16.261-11.767,30.614-24.268,41.53   l-15.037,10.988c-7.36-7.347-16.525-12.547-26.93-15.278c-0.157-0.042-0.313-0.084-0.47-0.124   c-0.885-0.225-1.775-0.438-2.677-0.627l-23.465-4.918l20.469-12.025c32.39-16.5,51.613-50.555,48.988-86.827l-1.628-22.505   l19.704,42.899c2.854,6.213,4.85,12.769,5.934,19.486c0.643,3.982,4.391,6.698,8.376,6.047c3.982-0.643,6.69-4.393,6.047-8.376   c-1.294-8.019-3.677-15.843-7.081-23.254L403.819,6.61c-2.324-5.057-7.71-7.621-13.1-6.238c-5.39,1.385-8.874,6.228-8.473,11.778   l2.94,40.634c2.204,30.458-13.977,59.051-41.224,72.844c-0.136,0.068-0.269,0.142-0.401,0.219l-34.518,20.28l-17.786-3.728   c-26.183-5.486-53.688-5.344-79.777,0.42l-10.285,2.272l-32.756-19.244c-0.132-0.077-0.265-0.15-0.401-0.219   c-27.246-13.792-43.428-42.385-41.224-72.844l2.94-40.633c0.232-3.196-0.814-6.217-2.944-8.506   c-2.15-2.311-5.213-3.637-8.404-3.637c-4.437,0-8.354,2.53-10.224,6.603l-27.29,59.417c-8.207,17.869-10.347,37.472-6.188,56.691   s14.212,36.183,29.073,49.06c0.153,0.132,0.311,0.259,0.474,0.378l13.482,9.85c-2.797,4.601-4.936,9.552-6.373,14.723l-0.894-0.004   c-2.541-0.01-4.436-0.017-4.741-0.021c-33.616-0.466-64.181,17.399-77.874,45.555l-12.11,24.901   c-2.044,4.204-2.248,8.913-0.574,13.261c1.739,4.512,5.415,8.179,10.088,10.06l27.373,11.016c3.742,1.505,7.998-0.307,9.504-4.05   c1.507-3.743-0.307-7.997-4.049-9.504l-27.376-11.016c-0.927-0.374-1.623-1.015-1.91-1.76c-0.211-0.547-0.185-1.077,0.078-1.619   l12.11-24.901c11.225-23.083,36.555-37.711,64.524-37.337c0.25,0.004,1.669,0.01,3.676,0.018c-0.007,0.26-0.001,0.521-0.004,0.781   c-0.006,0.453-0.012,0.906-0.008,1.361c0.004,0.476,0.019,0.952,0.035,1.428c0.013,0.404,0.022,0.807,0.043,1.211   c0.029,0.565,0.073,1.13,0.118,1.695c0.026,0.323,0.043,0.646,0.074,0.969c0.084,0.894,0.185,1.787,0.308,2.679l9.659,69.992   c-9.327,1.595-20.352,2.236-31.234,1.769c-4.028-0.162-7.437,2.955-7.611,6.985c-0.173,4.031,2.955,7.438,6.986,7.611   c2.504,0.108,5.019,0.16,7.527,0.16c9.187,0,18.271-0.71,26.329-2.052l2.119,15.352c2.166,16.043,10.734,30.945,24.126,41.963   c8.836,7.271,14.837,16.56,16.898,26.159l8.766,40.816c0.122,0.567,0.267,1.137,0.424,1.71c-1.837,3.853-3.264,7.904-4.235,12.084   c-1.983,8.538-1.52,15.112,1.416,20.097c5.776,9.81,16.665,16.09,34.996,19.517c3.447,17.89,15.8,28.382,33.915,28.382h32.329   c18.248,0,30.628-10.627,33.978-28.74c17.22-3.499,27.569-9.682,33.149-19.158c2.935-4.985,3.398-11.558,1.416-20.097   c-0.964-4.151-2.377-8.175-4.196-12.004c0.165-0.598,0.318-1.194,0.446-1.789l8.767-40.818c2.062-9.599,8.064-18.889,16.9-26.158   c13.392-11.02,21.96-25.922,24.123-41.942l2.163-15.669c8.419,1.526,18.084,2.346,28.01,2.346c0.001,0,0.002,0,0.003,0   c16.755,0,32.227-2.36,42.448-6.472l27.374-11.017c4.672-1.88,8.349-5.548,10.088-10.061   C498.504,276.072,498.301,271.363,496.257,267.16z M94.164,72.124l19.703-42.898l-1.628,22.504   c-2.624,36.272,16.599,70.327,48.989,86.827l19.003,11.165l-24.428,5.397c-0.86,0.19-1.709,0.402-2.553,0.625   c-0.188,0.05-0.375,0.103-0.563,0.154c-0.759,0.208-1.511,0.429-2.256,0.663c-0.07,0.022-0.14,0.043-0.21,0.065   c-8.914,2.839-16.846,7.565-23.383,13.943l-13.722-10.026C88.078,138.669,80.279,102.357,94.164,72.124z M290.484,485.537   c-4.322,11.854-14.529,11.854-18.323,11.854h-32.329c-3.768,0-13.898,0-18.259-11.68c0.275,0.025,0.563,0.046,0.841,0.07   c0.636,0.055,1.275,0.109,1.924,0.159c0.551,0.043,1.112,0.083,1.673,0.122c0.586,0.042,1.17,0.083,1.766,0.122   c0.642,0.041,1.298,0.078,1.953,0.116c0.545,0.031,1.086,0.063,1.639,0.092c0.726,0.038,1.469,0.07,2.211,0.103   c0.514,0.023,1.022,0.047,1.544,0.068c0.798,0.031,1.615,0.058,2.431,0.084c0.49,0.016,0.972,0.034,1.469,0.049   c0.874,0.025,1.769,0.044,2.664,0.063c0.464,0.01,0.918,0.023,1.386,0.031c0.976,0.018,1.977,0.029,2.979,0.041   c0.406,0.005,0.802,0.012,1.212,0.016c1.418,0.012,2.859,0.019,4.327,0.019c1.178,0,2.334-0.048,3.511-0.146   c1.178,0.099,2.334,0.146,3.511,0.146h0.001l0,0c0.012,0,0.023,0,0.034,0c1.502,0,2.979-0.007,4.432-0.02   c0.526-0.005,1.032-0.015,1.551-0.021c0.926-0.012,1.856-0.022,2.762-0.039c0.608-0.011,1.195-0.029,1.794-0.042   c0.794-0.019,1.595-0.035,2.374-0.058c0.608-0.018,1.195-0.042,1.793-0.062c0.748-0.026,1.503-0.05,2.237-0.08   c0.575-0.024,1.13-0.052,1.695-0.079c0.734-0.034,1.474-0.066,2.194-0.105c0.516-0.028,1.015-0.06,1.524-0.09   c0.752-0.044,1.507-0.087,2.243-0.137c0.421-0.028,0.827-0.061,1.242-0.091c0.806-0.058,1.613-0.116,2.399-0.18   c0.299-0.025,0.586-0.052,0.882-0.078c0.891-0.076,1.778-0.154,2.644-0.239C290.438,485.54,290.462,485.539,290.484,485.537z    M326.699,456.688c-5.855,9.943-25.192,14.913-60.62,15.506c-0.099,0.002-0.198,0.003-0.298,0.005   c-0.986,0.016-1.989,0.027-3,0.036c-0.221,0.002-0.438,0.005-0.661,0.006c-1.153,0.009-2.319,0.014-3.504,0.014   c-0.619,0-1.234-0.028-1.852-0.07c-0.309-0.021-0.617-0.039-0.932-0.071c-0.242-0.024-0.485-0.036-0.728-0.036   s-0.486,0.012-0.728,0.036c-0.944,0.095-1.854,0.141-2.783,0.141c-1.17,0-2.32-0.005-3.458-0.014   c-0.224-0.001-0.443-0.004-0.666-0.006c-1.047-0.009-2.085-0.021-3.105-0.038c-0.048-0.001-0.097-0.001-0.146-0.002   c-35.485-0.587-54.849-5.557-60.708-15.508c-0.677-1.15-0.973-4.217,0.226-9.38c4.156-17.894,19.165-31.515,37.192-34.755   c0.254-0.045,0.507-0.088,0.762-0.129c0.494-0.081,0.989-0.16,1.488-0.225c0.799-0.101,1.602-0.182,2.41-0.243   c0.271-0.021,0.543-0.036,0.814-0.053c0.923-0.054,1.85-0.093,2.783-0.093h51.839c0.934,0,1.861,0.04,2.785,0.094   c0.273,0.016,0.547,0.032,0.819,0.053c0.806,0.061,1.607,0.142,2.403,0.242c0.507,0.066,1.011,0.147,1.514,0.229   c0.241,0.038,0.482,0.08,0.722,0.122c18.034,3.236,33.049,16.859,37.206,34.759C327.672,452.472,327.376,455.539,326.699,456.688z    M353.339,351.953c-11.372,9.356-19.15,21.563-21.902,34.372l-6.298,29.329c-9.543-9.769-22.224-16.117-36.051-17.914   c-0.258-0.034-0.515-0.067-0.773-0.097c-0.575-0.067-1.15-0.13-1.729-0.181c-0.485-0.044-0.972-0.077-1.458-0.11   c-0.419-0.027-0.837-0.06-1.257-0.079c-0.947-0.044-1.896-0.071-2.846-0.071h-51.839c-0.95,0-1.898,0.027-2.845,0.071   c-0.417,0.019-0.831,0.052-1.246,0.079c-0.491,0.033-0.982,0.066-1.472,0.111c-0.571,0.051-1.139,0.113-1.706,0.179   c-0.271,0.032-0.542,0.066-0.813,0.102c-13.792,1.797-26.448,8.128-35.982,17.862l-6.288-29.28   c-2.751-12.808-10.529-25.015-21.9-34.372c-10.536-8.669-17.259-20.259-18.933-32.657l-3.183-23.067c0-0.002,0-0.005-0.001-0.007   l-10.594-76.764c-0.092-0.668-0.165-1.333-0.23-1.996c-0.028-0.295-0.049-0.589-0.072-0.884c-0.026-0.337-0.051-0.674-0.07-1.009   c-0.023-0.417-0.042-0.834-0.054-1.251c-0.005-0.151-0.007-0.302-0.011-0.452c-0.057-2.89,0.149-5.768,0.624-8.603   c0.023-0.135,0.03-0.27,0.045-0.405c1.273-7.279,4.28-13.952,8.699-19.556c0.118-0.127,0.24-0.25,0.35-0.387   c3.442-4.268,7.603-7.792,12.323-10.494c0.236-0.135,0.469-0.273,0.709-0.404c0.281-0.154,0.567-0.3,0.851-0.448   c0.327-0.17,0.653-0.339,0.986-0.502c0.252-0.123,0.507-0.242,0.761-0.36c0.371-0.173,0.744-0.343,1.122-0.507   c0.242-0.105,0.486-0.208,0.731-0.309c0.397-0.164,0.797-0.323,1.201-0.477c0.239-0.091,0.479-0.183,0.72-0.27   c0.42-0.152,0.845-0.297,1.272-0.438c0.234-0.077,0.466-0.157,0.702-0.231c0.462-0.145,0.93-0.279,1.4-0.411   c0.207-0.058,0.411-0.121,0.619-0.176c0.677-0.181,1.361-0.35,2.054-0.503l42.586-9.408c0.002,0,0.003-0.001,0.004-0.001   l13.082-2.89c24.075-5.317,49.465-5.451,73.628-0.386l62.509,13.102c0.712,0.149,1.415,0.315,2.111,0.493   c0.199,0.051,0.394,0.109,0.591,0.163c0.493,0.133,0.984,0.267,1.468,0.414c0.242,0.073,0.481,0.154,0.721,0.231   c0.429,0.138,0.858,0.277,1.28,0.426c0.269,0.095,0.535,0.196,0.801,0.295c0.378,0.141,0.755,0.284,1.127,0.434   c0.301,0.121,0.6,0.247,0.898,0.375c0.314,0.134,0.626,0.271,0.936,0.411c0.351,0.16,0.7,0.323,1.047,0.491   c0.225,0.109,0.447,0.22,0.67,0.333c0.426,0.216,0.85,0.435,1.267,0.663c0.1,0.055,0.199,0.111,0.299,0.166   c5.048,2.815,9.464,6.567,13.072,11.159c0.185,0.235,0.382,0.455,0.588,0.661c3.972,5.258,6.729,11.414,8.003,18.114   c0.018,0.238,0.044,0.476,0.086,0.713c0.521,2.942,0.752,5.935,0.696,8.945c-0.002,0.1-0.004,0.199-0.007,0.299   c-0.012,0.474-0.032,0.948-0.058,1.422c-0.018,0.306-0.04,0.614-0.064,0.921c-0.025,0.329-0.047,0.658-0.079,0.987   c-0.065,0.671-0.139,1.344-0.233,2.021l-13.717,99.383C370.598,331.694,363.875,343.284,353.339,351.953z M483.196,275.167   c-0.286,0.746-0.984,1.387-1.909,1.76l-27.373,11.016c-8.554,3.442-22.039,5.417-36.997,5.417c-9.34,0-18.34-0.777-26.011-2.219   l9.552-69.209c0.129-0.933,0.233-1.867,0.32-2.801c0.029-0.311,0.044-0.62,0.068-0.93c0.048-0.623,0.095-1.245,0.125-1.868   c0.017-0.352,0.022-0.702,0.032-1.053c0.018-0.586,0.033-1.171,0.034-1.755c0-0.337-0.007-0.672-0.012-1.008   c-0.006-0.393-0.001-0.787-0.015-1.18l0.919-0.004c2.457-0.01,4.258-0.017,4.552-0.021c27.948-0.36,53.345,14.344,64.525,37.337   l12.111,24.901C483.382,274.091,483.408,274.62,483.196,275.167z" style="fill:#121419;"/>
	<path d="M229.822,444.747l-15.908-14.31c-2.998-2.697-7.618-2.453-10.316,0.546s-2.453,7.618,0.546,10.316   l15.908,14.31c1.396,1.256,3.142,1.874,4.883,1.874c1.999,0,3.991-0.816,5.433-2.42   C233.065,452.064,232.821,447.445,229.822,444.747z" style="fill:#121419;"/>
	<path d="M298.08,430.437l-15.908,14.309c-3,2.698-3.244,7.317-0.546,10.316   c1.443,1.604,3.434,2.42,5.433,2.42c1.741,0,3.488-0.618,4.883-1.874l15.908-14.309c3-2.698,3.244-7.317,0.546-10.316   C305.699,427.984,301.08,427.739,298.08,430.437z" style="fill:#121419;"/>
	<path d="M166.365,270.609c-15.03,0-27.257,12.227-27.257,27.257c0,4.035,3.27,7.305,7.305,7.305   c4.034,0,7.305-3.27,7.305-7.305c0-6.974,5.674-12.647,12.648-12.647s12.648,5.674,12.648,12.647c0,4.035,3.271,7.305,7.305,7.305   s7.305-3.27,7.305-7.305C193.622,282.836,181.395,270.609,166.365,270.609z" style="fill:#121419;"/>
	<path d="M345.628,270.609c-15.03,0-27.257,12.227-27.257,27.257c0,4.035,3.27,7.305,7.305,7.305   s7.305-3.27,7.305-7.305c0-6.974,5.674-12.647,12.647-12.647c6.975,0,12.648,5.674,12.648,12.647c0,4.035,3.27,7.305,7.305,7.305   s7.305-3.27,7.305-7.305C372.886,282.836,360.658,270.609,345.628,270.609z" style="fill:#121419;"/>
</g>
</svg>