<?xml version="1.0" ?><!-- Generator: Adobe Illustrator 19.0.0, SVG Export Plug-In . SVG Version: 6.00 Build 0)  --><!DOCTYPE svg  PUBLIC '-//W3C//DTD SVG 1.1//EN'  'http://www.w3.org/Graphics/SVG/1.1/DTD/svg11.dtd' [
	<!ENTITY stroke_color "#666666">
	<!ENTITY fill_color "#ffffff">
]><svg id="Capa_1" style="enable-background:new 0 0 508.883 508.883;" version="1.1" viewBox="0 0 508.883 508.883" x="0px" xml:space="preserve" xmlns="http://www.w3.org/2000/svg" xmlns:xlink="http://www.w3.org/1999/xlink" y="0px">
<g style="" transform="matrix(1.25 0 0 -1.25 0 45)">
	<g style="">
		<g style="">
			<path d="M384.351-95.468c0,22.756-24.201,53.498-45.511,45.511     C247.818-84.09,122.662-27.201,122.662-27.201c-25.134,0-78.017-105.324-56.889-113.778c3.152-1.263,6.155-2.583,9.091-3.903     c-24.474-8.465-28.626-28.058-9.091-30.231c102.4-11.378,78.461-159.289,91.022-159.289c15.292,0,30.549,29.742,38.935,56.889     h111.502c3.277-26.795,9.853-56.889,20.23-56.889c9.853,0,29.707,40.3,43.167,104.016     C378.981-200.508,384.351-156.066,384.351-95.468" style="fill:&fill_color;;"/>
			<g style="">
				<path d="M111.284-175.112c-22.756,0-56.274-0.99-79.337-0.99S-9.513-136.53,5.369-121.694      c14.894,14.848,60.405,26.226,49.027,71.737c-6.167,24.678,45.511,34.133,68.267,22.756      c54.795-27.398,56.889-113.778-22.756-113.778C99.907-140.979,134.04-175.112,111.284-175.112" style="fill:#292F33;"/>
				<path d="M338.84-49.957c-29.423-11.036-62.407-12.527-93.594-9.535      c-12.572-15.849-20.184-36.329-20.184-58.732c0-50.267,38.195-91.022,85.333-91.022c29.434,0,55.364,15.883,70.713,40.061      c2.059,21.299,3.243,45.705,3.243,73.717C384.351-72.712,360.151-41.97,338.84-49.957" style="fill:#292F33;"/>
				<path d="M236.44-203.557c0-21.993-17.829-39.822-39.822-39.822s-39.822,17.829-39.822,39.822      c0,22.005,17.829,39.822,39.822,39.822S236.44-181.552,236.44-203.557" style="fill:#292F33;"/>
				<path d="M361.596-243.379c0-12.561-10.183-22.756-22.756-22.756c-12.561,0-22.756,10.194-22.756,22.756      c0,12.572,10.194,22.756,22.756,22.756C351.412-220.624,361.596-230.807,361.596-243.379" style="fill:#292F33;"/>
			</g>
			<g style="">
				<path d="M122.662-27.201c0-6.281-7.634-11.378-17.067-11.378s-51.2,27.853-51.2,34.133      s25.372,3.504,34.133,0C116.973-15.824,122.662-20.921,122.662-27.201" style="fill:&fill_color;;"/>
				<path d="M99.907-72.712c0-6.281-5.097-11.378-11.378-11.378s-11.378,5.097-11.378,11.378      s5.097,11.378,11.378,11.378S99.907-66.432,99.907-72.712" style="fill:&fill_color;;"/>
			</g>
			<path d="M395.729-197.868c-6.292,0-11.378,5.086-11.378,11.378v56.889     c0,16.373-6.383,22.756-22.756,22.756c-6.292,0-11.378,5.097-11.378,11.378s5.086,11.378,11.378,11.378     c28.922,0,45.511-16.589,45.511-45.511v-56.889C407.107-192.782,402.021-197.868,395.729-197.868" style="fill:#292F33;"/>
		</g>
	</g>
</g>
<g style="">
</g>
</svg>
